<?xml version="1.0" encoding="UTF-8" standalone="no"?>
<svg
   xmlns:dc="http://purl.org/dc/elements/1.1/"
   xmlns:cc="http://creativecommons.org/ns#"
   xmlns:rdf="http://www.w3.org/1999/02/22-rdf-syntax-ns#"
   xmlns:svg="http://www.w3.org/2000/svg"
   xmlns="http://www.w3.org/2000/svg"
   xmlns:sodipodi="http://sodipodi.sourceforge.net/DTD/sodipodi-0.dtd"
   xmlns:inkscape="http://www.inkscape.org/namespaces/inkscape"
   height="512"
   id="Layer_1"
   version="1.1"
   viewBox="0 0 512 512"
   width="512"
   xml:space="preserve"
   inkscape:version="0.91 r13725"
   sodipodi:docname="icon-goodreads2.svg"><metadata
     id="metadata9"><rdf:RDF><cc:Work
         rdf:about=""><dc:format>image/svg+xml</dc:format><dc:type
           rdf:resource="http://purl.org/dc/dcmitype/StillImage" /><dc:title></dc:title></cc:Work></rdf:RDF></metadata><sodipodi:namedview
     pagecolor="#ffffff"
     bordercolor="#666666"
     borderopacity="1"
     objecttolerance="10"
     gridtolerance="10"
     guidetolerance="10"
     inkscape:pageopacity="0"
     inkscape:pageshadow="2"
     inkscape:window-width="1366"
     inkscape:window-height="706"
     id="namedview7"
     showgrid="false"
     inkscape:zoom="0.4718177"
     inkscape:cx="377.65753"
     inkscape:cy="421.28875"
     inkscape:window-x="-8"
     inkscape:window-y="-8"
     inkscape:window-maximized="1"
     inkscape:current-layer="g6623" /><defs
     id="defs12" /><g
     id="g6623"><path
       style="opacity:1;fill:#ffffff;fill-opacity:1;fill-rule:evenodd;stroke:none;stroke-width:0.36000001;stroke-linecap:round;stroke-linejoin:round;stroke-miterlimit:4;stroke-dasharray:none;stroke-dashoffset:0;stroke-opacity:0.825"
       d="M 0 0 L 0 64 C -1.2490009e-016 28.544 28.544 0 64 0 L 0 0 z M 448 0 C 483.456 -1.2490009e-016 512 28.544 512 64 L 512 0 L 448 0 z M 254.91602 56 C 219.19601 56.72444 192.0577 70.523753 173.48438 97.408203 C 154.41326 124.10598 144.88867 157.04032 144.88867 196.19141 C 144.88867 236.42698 153.93259 269.7105 172.02148 296.05273 C 190.29703 322.94162 217.91939 336.56383 254.92383 336.92383 C 298.21273 336.56383 328.99559 314.91044 347.25781 271.97266 L 348.21289 271.97266 L 348.21289 337.46289 C 348.21289 342.34289 347.89337 349.91087 347.25781 360.19531 C 345.95559 370.83976 342.47647 382.29779 336.83203 394.56445 C 331.17425 406.11112 322.03978 415.95139 309.45312 424.0625 C 297.00423 432.9025 279.63621 437.50275 257.33398 437.86719 C 235.84954 437.86719 217.6797 432.27206 202.80859 421.08984 C 187.60859 410.08095 178.72816 392.21751 176.15039 367.50195 L 157.25391 367.50195 C 159.19169 399.61306 169.43981 422.52859 188.01758 436.24414 C 206.10647 449.40859 229.05797 456 256.85352 456 C 284.3113 456 305.72365 450.85724 321.07031 440.56836 C 336.25254 430.64836 347.156 418.28383 353.78711 403.48828 C 360.40933 388.69717 364.36985 374.62206 365.6543 361.27539 C 366.63652 347.91984 367.11133 338.35928 367.11133 332.58594 L 367.11133 62.498047 L 348.20508 62.498047 L 348.20508 122.03516 L 347.24805 122.03516 C 339.9725 100.20849 327.94225 83.702829 311.12891 72.511719 C 294.16891 61.507269 275.42713 56 254.91602 56 z M 254.92383 74.138672 C 286.42606 75.045332 309.76094 87.311707 324.96094 110.94727 C 340.14317 134.58727 347.73828 162.99922 347.73828 196.19922 C 347.73828 229.39922 340.14317 257.63069 324.96094 280.90625 C 309.76094 305.63069 286.42606 318.2527 254.92383 318.79492 C 225.19494 318.24825 202.56472 305.97744 187.0625 281.98633 C 171.38694 258.71077 163.55469 230.11531 163.55469 196.19531 C 163.55069 164.43975 171.22647 136.38289 186.58203 112.02734 C 201.43536 87.667353 224.21272 75.040892 254.92383 74.138672 z M 0 448 L 0 512 L 64 512 C 28.544 512 0 483.456 0 448 z M 512 448 C 512 483.456 483.456 512 448 512 L 512 512 L 512 448 z "
       id="rect4140" /></g></svg>