<?xml version="1.0" encoding="UTF-8" standalone="no"?>
<svg
   xmlns:dc="http://purl.org/dc/elements/1.1/"
   xmlns:cc="http://creativecommons.org/ns#"
   xmlns:rdf="http://www.w3.org/1999/02/22-rdf-syntax-ns#"
   xmlns:svg="http://www.w3.org/2000/svg"
   xmlns="http://www.w3.org/2000/svg"
   xmlns:sodipodi="http://sodipodi.sourceforge.net/DTD/sodipodi-0.dtd"
   xmlns:inkscape="http://www.inkscape.org/namespaces/inkscape"
   height="512"
   id="Layer_1"
   version="1.1"
   viewBox="0 0 512 512"
   width="512"
   xml:space="preserve"
   inkscape:version="0.91 r13725"
   sodipodi:docname="icon-goodreads.svg"><metadata
     id="metadata9"><rdf:RDF><cc:Work
         rdf:about=""><dc:format>image/svg+xml</dc:format><dc:type
           rdf:resource="http://purl.org/dc/dcmitype/StillImage" /><dc:title></dc:title></cc:Work></rdf:RDF></metadata><sodipodi:namedview
     pagecolor="#ffffff"
     bordercolor="#666666"
     borderopacity="1"
     objecttolerance="10"
     gridtolerance="10"
     guidetolerance="10"
     inkscape:pageopacity="0"
     inkscape:pageshadow="2"
     inkscape:window-width="1366"
     inkscape:window-height="706"
     id="namedview7"
     showgrid="false"
     inkscape:zoom="0.62486663"
     inkscape:cx="-49.314651"
     inkscape:cy="337.0436"
     inkscape:window-x="-8"
     inkscape:window-y="-8"
     inkscape:window-maximized="1"
     inkscape:current-layer="g6623" /><defs
     id="defs12" /><g
     id="g6623"><path
       style="fill:#5c97a3;fill-opacity:1;fill-rule:nonzero;stroke:none"
       d="M 64 0 C 28.544 0 -1.2611093e-016 28.544 0 64 L 0 448 C 0 483.456 28.544 512 64 512 L 448 512 C 483.456 512 512 483.456 512 448 L 512 64 C 512 28.544 483.456 -1.2611093e-016 448 0 L 64 0 z M 254.91602 56 C 275.42713 56 294.16891 61.507269 311.12891 72.511719 C 327.94225 83.702829 339.9725 100.20849 347.24805 122.03516 L 348.20508 122.03516 L 348.20508 62.498047 L 367.11133 62.498047 L 367.11133 332.58594 C 367.11133 338.35928 366.63652 347.91984 365.6543 361.27539 C 364.36985 374.62206 360.40933 388.69717 353.78711 403.48828 C 347.156 418.28383 336.25254 430.64836 321.07031 440.56836 C 305.72365 450.85724 284.3113 456 256.85352 456 C 229.05797 456 206.10647 449.40859 188.01758 436.24414 C 169.43981 422.52859 159.19169 399.61306 157.25391 367.50195 L 176.15039 367.50195 C 178.72816 392.21751 187.60859 410.08095 202.80859 421.08984 C 217.6797 432.27206 235.84954 437.86719 257.33398 437.86719 C 279.63621 437.50275 297.00423 432.9025 309.45312 424.0625 C 322.03978 415.95139 331.17425 406.11112 336.83203 394.56445 C 342.47647 382.29779 345.95559 370.83976 347.25781 360.19531 C 347.89337 349.91087 348.21289 342.34289 348.21289 337.46289 L 348.21289 271.97266 L 347.25781 271.97266 C 328.99559 314.91044 298.21273 336.56383 254.92383 336.92383 C 217.91939 336.56383 190.29703 322.94162 172.02148 296.05273 C 153.93259 269.7105 144.88867 236.42698 144.88867 196.19141 C 144.88867 157.04032 154.41326 124.10598 173.48438 97.408203 C 192.05771 70.523753 219.19601 56.72444 254.91602 56 z M 254.92383 74.138672 C 224.21272 75.040892 201.43536 87.667349 186.58203 112.02734 C 171.22647 136.38289 163.55069 164.43975 163.55469 196.19531 C 163.55469 230.11531 171.38694 258.71077 187.0625 281.98633 C 202.56472 305.97744 225.19494 318.24825 254.92383 318.79492 C 286.42606 318.2527 309.76094 305.63069 324.96094 280.90625 C 340.14317 257.63069 347.73828 229.39922 347.73828 196.19922 C 347.73828 162.99922 340.14317 134.58727 324.96094 110.94727 C 309.76094 87.311711 286.42606 75.045332 254.92383 74.138672 z "
       id="rect2987" /></g></svg>